<?xml version="1.0" encoding="utf-8" standalone="no"?>
<!DOCTYPE svg PUBLIC "-//W3C//DTD SVG 1.1//EN"
  "http://www.w3.org/Graphics/SVG/1.1/DTD/svg11.dtd">
<svg xmlns:xlink="http://www.w3.org/1999/xlink" width="666.36pt" height="422.96pt" viewBox="0 0 666.36 422.96" xmlns="http://www.w3.org/2000/svg" version="1.1">
 <metadata>
  <rdf:RDF xmlns:dc="http://purl.org/dc/elements/1.1/" xmlns:cc="http://creativecommons.org/ns#" xmlns:rdf="http://www.w3.org/1999/02/22-rdf-syntax-ns#">
   <cc:Work>
    <dc:type rdf:resource="http://purl.org/dc/dcmitype/StillImage"/>
    <dc:date>2026-02-21T17:23:48.967826</dc:date>
    <dc:format>image/svg+xml</dc:format>
    <dc:creator>
     <cc:Agent>
      <dc:title>Matplotlib v3.10.8, https://matplotlib.org/</dc:title>
     </cc:Agent>
    </dc:creator>
   </cc:Work>
  </rdf:RDF>
 </metadata>
 <defs>
  <style type="text/css">*{stroke-linejoin: round; stroke-linecap: butt}</style>
 </defs>
 <g id="figure_1">
  <g id="patch_1">
   <path d="M 0 422.96 
L 666.36 422.96 
L 666.36 0 
L 0 0 
z
" style="fill: #ffffff"/>
  </g>
  <g id="axes_1">
   <g id="patch_2">
    <path d="M 166.68 58.28 
C 171.453656 58.28 176.032438 56.383406 179.407922 53.007922 
C 182.783406 49.632438 184.68 45.053656 184.68 40.28 
C 184.68 35.506344 182.783406 30.927562 179.407922 27.552078 
C 176.032438 24.176594 171.453656 22.28 166.68 22.28 
C 161.906344 22.28 157.327562 24.176594 153.952078 27.552078 
C 150.576594 30.927562 148.68 35.506344 148.68 40.28 
C 148.68 45.053656 150.576594 49.632438 153.952078 53.007922 
C 157.327562 56.383406 161.906344 58.28 166.68 58.28 
L 166.68 58.28 
z
" clip-path="url(#p43235def5e)" style="fill: none; stroke: #000000; stroke-width: 2; stroke-linejoin: miter"/>
   </g>
   <g id="patch_3">
    <path d="M 554.240323 152.198319 
C 553.231224 151.495492 551.823342 150.915436 550.150469 150.513274 
C 548.477596 150.111112 546.594455 149.9 544.68 149.9 
C 542.765545 149.9 540.882404 150.111112 539.209531 150.513274 
C 537.536658 150.915436 536.128776 151.495492 535.119677 152.198319 
" clip-path="url(#p43235def5e)" style="fill: none; stroke: #000000; stroke-width: 2; stroke-linejoin: miter"/>
   </g>
   <g id="patch_4">
    <path d="M 337.68 249.98 
L 328.68 262.58 
L 319.68 249.98 
L 337.68 249.98 
z
" clip-path="url(#p43235def5e)" style="fill: none; stroke: #000000; stroke-width: 2; stroke-linecap: round"/>
   </g>
   <g id="line2d_1">
    <path d="M 112.68 40.28 
L 148.68 40.28 
L 148.68 40.28 
M 184.68 40.28 
L 184.68 40.28 
L 220.68 40.28 
" clip-path="url(#p43235def5e)" style="fill: none; stroke: #000000; stroke-width: 2; stroke-linecap: round"/>
   </g>
   <g id="line2d_2">
    <path d="M 157.68 43.88 
L 157.68 36.68 
" clip-path="url(#p43235def5e)" style="fill: none; stroke: #000000; stroke-width: 2; stroke-linecap: round"/>
   </g>
   <g id="line2d_3">
    <path d="M 172.08 40.28 
L 179.28 40.28 
" clip-path="url(#p43235def5e)" style="fill: none; stroke: #000000; stroke-width: 2; stroke-linecap: round"/>
   </g>
   <g id="line2d_4">
    <path d="M 175.68 43.88 
L 175.68 36.68 
" clip-path="url(#p43235def5e)" style="fill: none; stroke: #000000; stroke-width: 2; stroke-linecap: round"/>
   </g>
   <g id="line2d_5">
    <path d="M 220.68 40.28 
L 274.68 40.28 
L 328.68 40.28 
" clip-path="url(#p43235def5e)" style="fill: none; stroke: #000000; stroke-width: 2; stroke-linecap: round"/>
   </g>
   <g id="line2d_6">
    <path d="M 328.68 40.28 
L 328.68 55.28 
L 352.68 55.28 
L 352.68 79.28 
L 328.68 79.28 
L 328.68 94.28 
" clip-path="url(#p43235def5e)" style="fill: none; stroke: #000000; stroke-width: 2; stroke-linecap: round"/>
   </g>
   <g id="line2d_7">
    <path d="M 358.68 55.28 
L 358.68 79.28 
" clip-path="url(#p43235def5e)" style="fill: none; stroke: #000000; stroke-width: 2; stroke-linecap: round"/>
   </g>
   <g id="line2d_8">
    <path d="M 358.68 67.28 
L 377.88 67.28 
" clip-path="url(#p43235def5e)" style="fill: none; stroke: #000000; stroke-width: 2; stroke-linecap: round"/>
   </g>
   <g id="line2d_9">
    <path d="M 328.68 94.28 
L 382.68 94.28 
L 436.68 94.28 
" clip-path="url(#p43235def5e)" style="fill: none; stroke: #000000; stroke-width: 2; stroke-linecap: round"/>
   </g>
   <g id="line2d_10">
    <path d="M 436.68 94.28 
L 472.68 94.28 
L 472.81407 91.315813 
L 473.22176 88.324893 
L 473.894001 85.558083 
L 474.799538 83.247432 
L 475.324567 82.325692 
L 475.887547 81.586729 
L 476.479767 81.046119 
L 477.091902 80.715256 
L 477.714207 80.601116 
L 478.33672 80.706102 
L 478.949478 81.028004 
L 479.542723 81.560035 
L 480.107106 82.290982 
L 480.633888 83.205436 
L 481.543825 85.504309 
L 482.221342 88.26385 
L 482.63474 91.25262 
L 482.774472 94.219957 
L 482.653942 96.916994 
L 482.308382 99.117535 
L 481.791898 100.637024 
L 481.490537 101.098989 
L 481.172928 101.348023 
L 480.848923 101.378878 
L 480.528509 101.190903 
L 480.221597 100.78806 
L 479.686292 99.376085 
L 479.313029 97.261374 
L 479.158236 94.621284 
L 479.260019 91.677236 
L 479.634963 88.676142 
L 480.276748 85.8697 
L 481.156671 83.493281 
L 481.671402 82.530506 
L 482.226057 81.746192 
L 482.812102 81.156869 
L 483.420342 80.774959 
L 484.041113 80.608513 
L 484.664487 80.661038 
L 485.280482 80.931428 
L 485.879271 81.413983 
L 486.45139 82.098532 
L 486.987935 82.970645 
L 487.922621 85.200471 
L 488.63006 87.916447 
L 489.076046 90.890789 
L 489.248297 93.874044 
L 489.15749 96.61601 
L 488.836365 98.886723 
L 488.336977 100.495742 
L 488.040936 101.007431 
L 487.726332 101.30812 
L 487.402952 101.391471 
L 487.080768 101.255725 
L 486.769731 100.903746 
L 486.479551 100.342952 
L 485.998228 98.646352 
L 485.702289 96.308218 
L 485.641678 93.524645 
L 485.846602 90.529087 
L 486.324998 87.572776 
L 487.061866 84.903655 
L 488.020531 82.745578 
L 488.566371 81.916862 
L 489.145713 81.27954 
L 489.749502 80.847045 
L 490.368169 80.628495 
L 490.991831 80.628495 
L 491.610498 80.847045 
L 492.214287 81.27954 
L 492.793629 81.916862 
L 493.339469 82.745578 
L 493.84346 83.74822 
L 494.697065 86.187527 
L 495.307979 89.030202 
L 495.650087 92.037835 
L 495.719821 94.958178 
L 495.536457 97.546309 
L 495.140496 99.585163 
L 494.590269 100.903746 
L 494.279232 101.255725 
L 493.957048 101.391471 
L 493.633668 101.30812 
L 493.319064 101.007431 
L 493.023023 100.495742 
L 492.523635 98.886723 
L 492.20251 96.61601 
L 492.111703 93.874044 
L 492.283954 90.890789 
L 492.72994 87.916447 
L 493.437379 85.200471 
L 494.372065 82.970645 
L 494.90861 82.098532 
L 495.480729 81.413983 
L 496.079518 80.931428 
L 496.695513 80.661038 
L 497.318887 80.608513 
L 497.939658 80.774959 
L 498.547898 81.156869 
L 499.133943 81.746192 
L 499.688598 82.530506 
L 500.203329 83.493281 
L 501.083252 85.8697 
L 501.725037 88.676142 
L 502.099981 91.677236 
L 502.201764 94.621284 
L 502.046971 97.261374 
L 501.673708 99.376085 
L 501.138403 100.78806 
L 500.831491 101.190903 
L 500.511077 101.378878 
L 500.187072 101.348023 
L 499.869463 101.098989 
L 499.568102 100.637024 
L 499.051618 99.117535 
L 498.706058 96.916994 
L 498.585528 94.219957 
L 498.72526 91.25262 
L 499.138658 88.26385 
L 499.816175 85.504309 
L 500.726112 83.205436 
L 501.252894 82.290982 
L 501.817277 81.560035 
L 502.410522 81.028004 
L 503.02328 80.706102 
L 503.645793 80.601116 
L 504.268098 80.715256 
L 504.880233 81.046119 
L 505.472453 81.586729 
L 506.035433 82.325692 
L 506.560462 83.247432 
L 507.465999 85.558083 
L 508.13824 88.324893 
L 508.54593 91.315813 
L 508.68 94.28 
L 544.68 94.28 
L 544.68 94.28 
" clip-path="url(#p43235def5e)" style="fill: none; stroke: #000000; stroke-width: 2; stroke-linecap: round"/>
   </g>
   <g id="line2d_11">
    <path d="M 544.68 94.28 
L 598.68 94.28 
L 652.68 94.28 
" clip-path="url(#p43235def5e)" style="fill: none; stroke: #000000; stroke-width: 2; stroke-linecap: round"/>
   </g>
   <g id="line2d_12">
    <path d="M 652.68 94.28 
L 652.68 130.28 
L 661.68 133.28 
L 643.68 139.28 
L 661.68 145.28 
L 643.68 151.28 
L 661.68 157.28 
L 643.68 163.28 
L 652.68 166.28 
L 652.68 202.28 
" clip-path="url(#p43235def5e)" style="fill: none; stroke: #000000; stroke-width: 2; stroke-linecap: round"/>
   </g>
   <g id="line2d_13">
    <path d="M 652.68 202.28 
L 382.68 202.28 
L 112.68 202.28 
" clip-path="url(#p43235def5e)" style="fill: none; stroke: #000000; stroke-width: 2; stroke-linecap: round"/>
   </g>
   <g id="line2d_14">
    <path d="M 112.68 202.28 
L 112.68 216.68 
L 103.68 216.68 
L 121.68 216.68 
M 106.38 221 
L 118.98 221 
M 110.88 225.32 
L 114.48 225.32 
" clip-path="url(#p43235def5e)" style="fill: none; stroke: #000000; stroke-width: 2; stroke-linecap: round"/>
   </g>
   <g id="line2d_15">
    <path d="M 112.68 202.28 
L 112.68 121.28 
L 112.68 40.28 
" clip-path="url(#p43235def5e)" style="fill: none; stroke: #000000; stroke-width: 2; stroke-linecap: round"/>
   </g>
   <g id="line2d_16">
    <path d="M 544.68 94.28 
L 544.68 145.04 
M 553.68 145.04 
L 535.68 145.04 
M 544.68 151.52 
L 544.68 202.28 
" clip-path="url(#p43235def5e)" style="fill: none; stroke: #000000; stroke-width: 2; stroke-linecap: round"/>
   </g>
   <g id="line2d_17">
    <path d="M 544.68 202.28 
" clip-path="url(#p43235def5e)" style="fill: none; stroke: #000000; stroke-width: 2; stroke-linecap: round"/>
   </g>
   <g id="line2d_18">
    <path d="M 544.68 202.28 
L 490.68 202.28 
L 436.68 202.28 
" clip-path="url(#p43235def5e)" style="fill: none; stroke: #000000; stroke-width: 2; stroke-linecap: round"/>
   </g>
   <g id="line2d_19">
    <path d="M 328.68 94.28 
L 328.68 148.28 
L 328.68 202.28 
" clip-path="url(#p43235def5e)" style="fill: none; stroke: #000000; stroke-width: 2; stroke-linecap: round"/>
   </g>
   <g id="line2d_20">
    <path d="M 328.68 202.28 
L 328.68 249.98 
M 337.68 262.58 
L 319.68 262.58 
M 328.68 262.58 
L 328.68 310.28 
" clip-path="url(#p43235def5e)" style="fill: none; stroke: #000000; stroke-width: 2; stroke-linecap: round"/>
   </g>
   <g id="line2d_21">
    <path d="M 328.68 310.28 
L 328.68 364.28 
L 328.68 418.28 
" clip-path="url(#p43235def5e)" style="fill: none; stroke: #000000; stroke-width: 2; stroke-linecap: round"/>
   </g>
   <g id="line2d_22">
    <path d="M 328.68 418.28 
L 166.68 418.28 
L 4.68 418.28 
" clip-path="url(#p43235def5e)" style="fill: none; stroke: #000000; stroke-width: 2; stroke-linecap: round"/>
   </g>
   <g id="text_1">
    <!-- Vin 24V -->
    <g transform="translate(139.7475 15.768437) scale(0.14 -0.14)">
     <defs>
      <path id="DejaVuSans-56" d="M 1831 0 
L 50 4666 
L 709 4666 
L 2188 738 
L 3669 4666 
L 4325 4666 
L 2547 0 
L 1831 0 
z
" transform="scale(0.015625)"/>
      <path id="DejaVuSans-69" d="M 603 3500 
L 1178 3500 
L 1178 0 
L 603 0 
L 603 3500 
z
M 603 4863 
L 1178 4863 
L 1178 4134 
L 603 4134 
L 603 4863 
z
" transform="scale(0.015625)"/>
      <path id="DejaVuSans-6e" d="M 3513 2113 
L 3513 0 
L 2938 0 
L 2938 2094 
Q 2938 2591 2744 2837 
Q 2550 3084 2163 3084 
Q 1697 3084 1428 2787 
Q 1159 2491 1159 1978 
L 1159 0 
L 581 0 
L 581 3500 
L 1159 3500 
L 1159 2956 
Q 1366 3272 1645 3428 
Q 1925 3584 2291 3584 
Q 2894 3584 3203 3211 
Q 3513 2838 3513 2113 
z
" transform="scale(0.015625)"/>
      <path id="DejaVuSans-20" transform="scale(0.015625)"/>
      <path id="DejaVuSans-32" d="M 1228 531 
L 3431 531 
L 3431 0 
L 469 0 
L 469 531 
Q 828 903 1448 1529 
Q 2069 2156 2228 2338 
Q 2531 2678 2651 2914 
Q 2772 3150 2772 3378 
Q 2772 3750 2511 3984 
Q 2250 4219 1831 4219 
Q 1534 4219 1204 4116 
Q 875 4013 500 3803 
L 500 4441 
Q 881 4594 1212 4672 
Q 1544 4750 1819 4750 
Q 2544 4750 2975 4387 
Q 3406 4025 3406 3419 
Q 3406 3131 3298 2873 
Q 3191 2616 2906 2266 
Q 2828 2175 2409 1742 
Q 1991 1309 1228 531 
z
" transform="scale(0.015625)"/>
      <path id="DejaVuSans-34" d="M 2419 4116 
L 825 1625 
L 2419 1625 
L 2419 4116 
z
M 2253 4666 
L 3047 4666 
L 3047 1625 
L 3713 1625 
L 3713 1100 
L 3047 1100 
L 3047 0 
L 2419 0 
L 2419 1100 
L 313 1100 
L 313 1709 
L 2253 4666 
z
" transform="scale(0.015625)"/>
     </defs>
     <use xlink:href="#DejaVuSans-56"/>
     <use xlink:href="#DejaVuSans-69" transform="translate(66.158203 0)"/>
     <use xlink:href="#DejaVuSans-6e" transform="translate(93.941406 0)"/>
     <use xlink:href="#DejaVuSans-20" transform="translate(157.320312 0)"/>
     <use xlink:href="#DejaVuSans-32" transform="translate(189.107422 0)"/>
     <use xlink:href="#DejaVuSans-34" transform="translate(252.730469 0)"/>
     <use xlink:href="#DejaVuSans-56" transform="translate(316.353516 0)"/>
    </g>
   </g>
   <g id="text_2">
    <!-- Q1 -->
    <g transform="translate(305.151875 71.143125) scale(0.14 -0.14)">
     <defs>
      <path id="DejaVuSans-51" d="M 2522 4238 
Q 1834 4238 1429 3725 
Q 1025 3213 1025 2328 
Q 1025 1447 1429 934 
Q 1834 422 2522 422 
Q 3209 422 3611 934 
Q 4013 1447 4013 2328 
Q 4013 3213 3611 3725 
Q 3209 4238 2522 4238 
z
M 3406 84 
L 4238 -825 
L 3475 -825 
L 2784 -78 
Q 2681 -84 2626 -87 
Q 2572 -91 2522 -91 
Q 1538 -91 948 567 
Q 359 1225 359 2328 
Q 359 3434 948 4092 
Q 1538 4750 2522 4750 
Q 3503 4750 4090 4092 
Q 4678 3434 4678 2328 
Q 4678 1516 4351 937 
Q 4025 359 3406 84 
z
" transform="scale(0.015625)"/>
      <path id="DejaVuSans-31" d="M 794 531 
L 1825 531 
L 1825 4091 
L 703 3866 
L 703 4441 
L 1819 4666 
L 2450 4666 
L 2450 531 
L 3481 531 
L 3481 0 
L 794 0 
L 794 531 
z
" transform="scale(0.015625)"/>
     </defs>
     <use xlink:href="#DejaVuSans-51"/>
     <use xlink:href="#DejaVuSans-31" transform="translate(78.710938 0)"/>
    </g>
   </g>
   <g id="text_3">
    <!-- L1 -->
    <g transform="translate(482.325938 74.089553) scale(0.14 -0.14)">
     <defs>
      <path id="DejaVuSans-4c" d="M 628 4666 
L 1259 4666 
L 1259 531 
L 3531 531 
L 3531 0 
L 628 0 
L 628 4666 
z
" transform="scale(0.015625)"/>
     </defs>
     <use xlink:href="#DejaVuSans-4c"/>
     <use xlink:href="#DejaVuSans-31" transform="translate(55.712891 0)"/>
    </g>
   </g>
   <g id="text_4">
    <!-- Load -->
    <g transform="translate(606.490938 152.143125) scale(0.14 -0.14)">
     <defs>
      <path id="DejaVuSans-6f" d="M 1959 3097 
Q 1497 3097 1228 2736 
Q 959 2375 959 1747 
Q 959 1119 1226 758 
Q 1494 397 1959 397 
Q 2419 397 2687 759 
Q 2956 1122 2956 1747 
Q 2956 2369 2687 2733 
Q 2419 3097 1959 3097 
z
M 1959 3584 
Q 2709 3584 3137 3096 
Q 3566 2609 3566 1747 
Q 3566 888 3137 398 
Q 2709 -91 1959 -91 
Q 1206 -91 779 398 
Q 353 888 353 1747 
Q 353 2609 779 3096 
Q 1206 3584 1959 3584 
z
" transform="scale(0.015625)"/>
      <path id="DejaVuSans-61" d="M 2194 1759 
Q 1497 1759 1228 1600 
Q 959 1441 959 1056 
Q 959 750 1161 570 
Q 1363 391 1709 391 
Q 2188 391 2477 730 
Q 2766 1069 2766 1631 
L 2766 1759 
L 2194 1759 
z
M 3341 1997 
L 3341 0 
L 2766 0 
L 2766 531 
Q 2569 213 2275 61 
Q 1981 -91 1556 -91 
Q 1019 -91 701 211 
Q 384 513 384 1019 
Q 384 1609 779 1909 
Q 1175 2209 1959 2209 
L 2766 2209 
L 2766 2266 
Q 2766 2663 2505 2880 
Q 2244 3097 1772 3097 
Q 1472 3097 1187 3025 
Q 903 2953 641 2809 
L 641 3341 
Q 956 3463 1253 3523 
Q 1550 3584 1831 3584 
Q 2591 3584 2966 3190 
Q 3341 2797 3341 1997 
z
" transform="scale(0.015625)"/>
      <path id="DejaVuSans-64" d="M 2906 2969 
L 2906 4863 
L 3481 4863 
L 3481 0 
L 2906 0 
L 2906 525 
Q 2725 213 2448 61 
Q 2172 -91 1784 -91 
Q 1150 -91 751 415 
Q 353 922 353 1747 
Q 353 2572 751 3078 
Q 1150 3584 1784 3584 
Q 2172 3584 2448 3432 
Q 2725 3281 2906 2969 
z
M 947 1747 
Q 947 1113 1208 752 
Q 1469 391 1925 391 
Q 2381 391 2643 752 
Q 2906 1113 2906 1747 
Q 2906 2381 2643 2742 
Q 2381 3103 1925 3103 
Q 1469 3103 1208 2742 
Q 947 2381 947 1747 
z
" transform="scale(0.015625)"/>
     </defs>
     <use xlink:href="#DejaVuSans-4c"/>
     <use xlink:href="#DejaVuSans-6f" transform="translate(53.962891 0)"/>
     <use xlink:href="#DejaVuSans-61" transform="translate(115.144531 0)"/>
     <use xlink:href="#DejaVuSans-64" transform="translate(176.423828 0)"/>
    </g>
   </g>
   <g id="text_5">
    <!-- C1 -->
    <g transform="translate(512.83624 152.143125) scale(0.14 -0.14)">
     <defs>
      <path id="DejaVuSans-43" d="M 4122 4306 
L 4122 3641 
Q 3803 3938 3442 4084 
Q 3081 4231 2675 4231 
Q 1875 4231 1450 3742 
Q 1025 3253 1025 2328 
Q 1025 1406 1450 917 
Q 1875 428 2675 428 
Q 3081 428 3442 575 
Q 3803 722 4122 1019 
L 4122 359 
Q 3791 134 3420 21 
Q 3050 -91 2638 -91 
Q 1578 -91 968 557 
Q 359 1206 359 2328 
Q 359 3453 968 4101 
Q 1578 4750 2638 4750 
Q 3056 4750 3426 4639 
Q 3797 4528 4122 4306 
z
" transform="scale(0.015625)"/>
     </defs>
     <use xlink:href="#DejaVuSans-43"/>
     <use xlink:href="#DejaVuSans-31" transform="translate(69.824219 0)"/>
    </g>
   </g>
   <g id="text_6">
    <!-- D1 -->
    <g transform="translate(296.3925 260.143125) scale(0.14 -0.14)">
     <defs>
      <path id="DejaVuSans-44" d="M 1259 4147 
L 1259 519 
L 2022 519 
Q 2988 519 3436 956 
Q 3884 1394 3884 2338 
Q 3884 3275 3436 3711 
Q 2988 4147 2022 4147 
L 1259 4147 
z
M 628 4666 
L 1925 4666 
Q 3281 4666 3915 4102 
Q 4550 3538 4550 2338 
Q 4550 1131 3912 565 
Q 3275 0 1925 0 
L 628 0 
L 628 4666 
z
" transform="scale(0.015625)"/>
     </defs>
     <use xlink:href="#DejaVuSans-44"/>
     <use xlink:href="#DejaVuSans-31" transform="translate(77.001953 0)"/>
    </g>
   </g>
   <g id="patch_5">
    <path d="M 328.68 96.98 
C 329.396048 96.98 330.082866 96.695511 330.589188 96.189188 
C 331.095511 95.682866 331.38 94.996048 331.38 94.28 
C 331.38 93.563952 331.095511 92.877134 330.589188 92.370812 
C 330.082866 91.864489 329.396048 91.58 328.68 91.58 
C 327.963952 91.58 327.277134 91.864489 326.770812 92.370812 
C 326.264489 92.877134 325.98 93.563952 325.98 94.28 
C 325.98 94.996048 326.264489 95.682866 326.770812 96.189188 
C 327.277134 96.695511 327.963952 96.98 328.68 96.98 
z
" clip-path="url(#p43235def5e)" style="stroke: #000000; stroke-width: 2; stroke-linejoin: miter"/>
   </g>
   <g id="patch_6">
    <path d="M 544.68 96.98 
C 545.396048 96.98 546.082866 96.695511 546.589188 96.189188 
C 547.095511 95.682866 547.38 94.996048 547.38 94.28 
C 547.38 93.563952 547.095511 92.877134 546.589188 92.370812 
C 546.082866 91.864489 545.396048 91.58 544.68 91.58 
C 543.963952 91.58 543.277134 91.864489 542.770812 92.370812 
C 542.264489 92.877134 541.98 93.563952 541.98 94.28 
C 541.98 94.996048 542.264489 95.682866 542.770812 96.189188 
C 543.277134 96.695511 543.963952 96.98 544.68 96.98 
z
" clip-path="url(#p43235def5e)" style="stroke: #000000; stroke-width: 2; stroke-linejoin: miter"/>
   </g>
   <g id="patch_7">
    <path d="M 652.68 204.98 
C 653.396048 204.98 654.082866 204.695511 654.589188 204.189188 
C 655.095511 203.682866 655.38 202.996048 655.38 202.28 
C 655.38 201.563952 655.095511 200.877134 654.589188 200.370812 
C 654.082866 199.864489 653.396048 199.58 652.68 199.58 
C 651.963952 199.58 651.277134 199.864489 650.770812 200.370812 
C 650.264489 200.877134 649.98 201.563952 649.98 202.28 
C 649.98 202.996048 650.264489 203.682866 650.770812 204.189188 
C 651.277134 204.695511 651.963952 204.98 652.68 204.98 
z
" clip-path="url(#p43235def5e)" style="stroke: #000000; stroke-width: 2; stroke-linejoin: miter"/>
   </g>
  </g>
 </g>
 <defs>
  <clipPath id="p43235def5e">
   <rect x="0" y="-0" width="666.36" height="422.96"/>
  </clipPath>
 </defs>
</svg>
