<?xml version="1.0" encoding="utf-8" standalone="no"?>
<!DOCTYPE svg PUBLIC "-//W3C//DTD SVG 1.1//EN"
  "http://www.w3.org/Graphics/SVG/1.1/DTD/svg11.dtd">
<svg xmlns:xlink="http://www.w3.org/1999/xlink" width="632.9664pt" height="297.36pt" viewBox="0 0 632.9664 297.36" xmlns="http://www.w3.org/2000/svg" version="1.1">
 <metadata>
  <rdf:RDF xmlns:dc="http://purl.org/dc/elements/1.1/" xmlns:cc="http://creativecommons.org/ns#" xmlns:rdf="http://www.w3.org/1999/02/22-rdf-syntax-ns#">
   <cc:Work>
    <dc:type rdf:resource="http://purl.org/dc/dcmitype/StillImage"/>
    <dc:date>2026-03-14T15:52:45.712260</dc:date>
    <dc:format>image/svg+xml</dc:format>
    <dc:creator>
     <cc:Agent>
      <dc:title>Matplotlib v3.10.8, https://matplotlib.org/</dc:title>
     </cc:Agent>
    </dc:creator>
   </cc:Work>
  </rdf:RDF>
 </metadata>
 <defs>
  <style type="text/css">*{stroke-linejoin: round; stroke-linecap: butt}</style>
 </defs>
 <g id="figure_1">
  <g id="patch_1">
   <path d="M 0 297.36 
L 632.9664 297.36 
L 632.9664 0 
L 0 0 
z
" style="fill: #ffffff"/>
  </g>
  <g id="axes_1">
   <g id="patch_2">
    <path d="M 27.216 162.576 
C 32.944387 162.576 38.438925 160.300088 42.489506 156.249506 
C 46.540088 152.198925 48.816 146.704387 48.816 140.976 
C 48.816 135.247613 46.540088 129.753075 42.489506 125.702494 
C 38.438925 121.651912 32.944387 119.376 27.216 119.376 
C 21.487613 119.376 15.993075 121.651912 11.942494 125.702494 
C 7.891912 129.753075 5.616 135.247613 5.616 140.976 
C 5.616 146.704387 7.891912 152.198925 11.942494 156.249506 
C 15.993075 160.300088 21.487613 162.576 27.216 162.576 
L 27.216 162.576 
z
" clip-path="url(#p0600dbb595)" style="fill: none; stroke: #000000; stroke-width: 2; stroke-linejoin: miter"/>
   </g>
   <g id="patch_3">
    <path d="M 449.088387 145.677983 
C 447.877469 144.83459 446.188011 144.138523 444.180563 143.655928 
C 442.173115 143.173334 439.913346 142.92 437.616 142.92 
C 435.318654 142.92 433.058885 143.173334 431.051437 143.655928 
C 429.043989 144.138523 427.354531 144.83459 426.143613 145.677983 
" clip-path="url(#p0600dbb595)" style="fill: none; stroke: #000000; stroke-width: 2; stroke-linejoin: miter"/>
   </g>
   <g id="patch_4">
    <path d="M 275.616 159.336 
L 286.416 174.456 
L 297.216 159.336 
L 275.616 159.336 
z
" clip-path="url(#p0600dbb595)" style="fill: none; stroke: #000000; stroke-width: 2; stroke-linecap: round"/>
   </g>
   <g id="line2d_1">
    <path d="M 27.216 238.176 
L 27.216 162.576 
L 27.216 162.576 
M 27.216 119.376 
L 27.216 119.376 
L 27.216 43.776 
" clip-path="url(#p0600dbb595)" style="fill: none; stroke: #000000; stroke-width: 2; stroke-linecap: round"/>
   </g>
   <g id="line2d_2">
    <path d="M 31.536 151.776 
L 22.896 151.776 
" clip-path="url(#p0600dbb595)" style="fill: none; stroke: #000000; stroke-width: 2; stroke-linecap: round"/>
   </g>
   <g id="line2d_3">
    <path d="M 27.216 134.496 
L 27.216 125.856 
" clip-path="url(#p0600dbb595)" style="fill: none; stroke: #000000; stroke-width: 2; stroke-linecap: round"/>
   </g>
   <g id="line2d_4">
    <path d="M 31.536 130.176 
L 22.896 130.176 
" clip-path="url(#p0600dbb595)" style="fill: none; stroke: #000000; stroke-width: 2; stroke-linecap: round"/>
   </g>
   <g id="line2d_5">
    <path d="M 27.216 43.776 
L 59.616 43.776 
L 92.016 43.776 
" clip-path="url(#p0600dbb595)" style="fill: none; stroke: #000000; stroke-width: 2; stroke-linecap: round"/>
   </g>
   <g id="line2d_6">
    <path d="M 92.016 43.776 
L 167.616 43.776 
M 177.984 39.456 
L 202.176 24.336 
M 210.816 43.776 
L 286.416 43.776 
" clip-path="url(#p0600dbb595)" style="fill: none; stroke: #000000; stroke-width: 2; stroke-linecap: round"/>
   </g>
   <g id="line2d_7">
    <path d="M 286.416 43.776 
L 303.696 43.776 
L 320.976 43.776 
" clip-path="url(#p0600dbb595)" style="fill: none; stroke: #000000; stroke-width: 2; stroke-linecap: round"/>
   </g>
   <g id="line2d_8">
    <path d="M 320.976 43.776 
L 396.576 43.776 
L 396.790547 40.055345 
L 397.062009 38.165785 
L 397.442473 36.314722 
L 397.928454 34.544787 
L 398.514036 32.896742 
L 399.191009 31.408543 
L 399.949057 30.114463 
L 400.776 29.044307 
L 401.658069 28.222719 
L 402.580226 27.668623 
L 403.526509 27.394779 
L 404.480401 27.407494 
L 405.42521 27.706475 
L 406.344454 28.284836 
L 407.222237 29.129258 
L 408.04362 30.220293 
L 408.794964 31.532813 
L 409.46424 33.036591 
L 410.041311 34.696994 
L 410.518163 36.475782 
L 410.889091 38.331989 
L 411.302623 42.10486 
L 411.285999 45.670045 
L 410.882711 48.701002 
L 410.559519 49.926743 
L 410.171663 50.92012 
L 409.73335 51.658253 
L 409.259951 52.124145 
L 408.767646 52.307065 
L 408.273048 52.2028 
L 407.792827 51.813751 
L 407.343316 51.148879 
L 406.940146 50.223497 
L 406.597878 49.058915 
L 406.329671 47.681955 
L 406.146978 46.124329 
L 406.073884 42.613906 
L 406.427258 38.849172 
L 406.768447 36.979146 
L 407.216704 35.174946 
L 407.766981 33.478123 
L 408.411882 31.927757 
L 409.141831 30.559552 
L 409.945293 29.405019 
L 410.80904 28.490749 
L 411.718456 27.837797 
L 412.657874 27.461201 
L 413.610933 27.369634 
L 414.560963 27.565205 
L 415.491358 28.043409 
L 416.385968 28.793235 
L 417.229466 29.797412 
L 418.007703 31.032814 
L 418.708031 32.470989 
L 419.319597 34.078815 
L 419.833595 35.819263 
L 420.243462 37.65225 
L 420.736645 41.42582 
L 420.795945 45.053898 
L 420.457898 48.204182 
L 420.161401 49.507511 
L 419.795435 50.588131 
L 419.373705 51.421155 
L 418.9112 51.987396 
L 418.423849 52.273815 
L 417.928151 52.273815 
L 417.4408 51.987396 
L 416.978295 51.421155 
L 416.556565 50.588131 
L 416.190599 49.507511 
L 415.894102 48.204182 
L 415.679179 46.70816 
L 415.532844 43.279497 
L 415.806965 39.53556 
L 416.108538 37.65225 
L 416.518405 35.819263 
L 417.032403 34.078815 
L 417.643969 32.470989 
L 418.344297 31.032814 
L 419.122534 29.797412 
L 419.966032 28.793235 
L 420.860642 28.043409 
L 421.791037 27.565205 
L 422.741067 27.369634 
L 423.694126 27.461201 
L 424.633544 27.837797 
L 425.54296 28.490749 
L 426.406707 29.405019 
L 427.210169 30.559552 
L 427.940118 31.927757 
L 428.585019 33.478123 
L 429.135296 35.174946 
L 429.583553 36.979146 
L 429.924742 38.849172 
L 430.278116 42.613906 
L 430.205022 46.124329 
L 429.754122 49.058915 
L 429.411854 50.223497 
L 429.008684 51.148879 
L 428.559173 51.813751 
L 428.078952 52.2028 
L 427.584354 52.307065 
L 427.092049 52.124145 
L 426.61865 51.658253 
L 426.180337 50.92012 
L 425.792481 49.926743 
L 425.469289 48.701002 
L 425.223484 47.271126 
L 425.005743 43.934634 
L 425.201172 40.222864 
L 425.462909 38.331989 
L 425.833837 36.475782 
L 426.310689 34.696994 
L 426.88776 33.036591 
L 427.557036 31.532813 
L 428.30838 30.220293 
L 429.129763 29.129258 
L 430.007546 28.284836 
L 430.92679 27.706475 
L 431.871599 27.407494 
L 432.825491 27.394779 
L 433.771774 27.668623 
L 434.693931 28.222719 
L 435.576 29.044307 
L 436.402943 30.114463 
L 437.160991 31.408543 
L 437.837964 32.896742 
L 438.423546 34.544787 
L 438.909527 36.314722 
L 439.289991 38.165785 
L 439.722937 41.939884 
L 439.776 43.776 
L 515.376 43.776 
L 515.376 43.776 
" clip-path="url(#p0600dbb595)" style="fill: none; stroke: #000000; stroke-width: 2; stroke-linecap: round"/>
   </g>
   <g id="line2d_9">
    <path d="M 515.376 43.776 
L 528.336 43.776 
L 541.296 43.776 
" clip-path="url(#p0600dbb595)" style="fill: none; stroke: #000000; stroke-width: 2; stroke-linecap: round"/>
   </g>
   <g id="line2d_10">
    <path d="M 541.296 43.776 
L 541.296 119.376 
L 552.096 122.976 
L 530.496 130.176 
L 552.096 137.376 
L 530.496 144.576 
L 552.096 151.776 
L 530.496 158.976 
L 541.296 162.576 
L 541.296 238.176 
" clip-path="url(#p0600dbb595)" style="fill: none; stroke: #000000; stroke-width: 2; stroke-linecap: round"/>
   </g>
   <g id="line2d_11">
    <path d="M 515.376 43.776 
L 476.496 43.776 
L 437.616 43.776 
" clip-path="url(#p0600dbb595)" style="fill: none; stroke: #000000; stroke-width: 2; stroke-linecap: round"/>
   </g>
   <g id="line2d_12">
    <path d="M 437.616 43.776 
L 437.616 137.088 
M 448.416 137.088 
L 426.816 137.088 
M 437.616 144.864 
L 437.616 238.176 
" clip-path="url(#p0600dbb595)" style="fill: none; stroke: #000000; stroke-width: 2; stroke-linecap: round"/>
   </g>
   <g id="line2d_13">
    <path d="M 437.616 238.176 
L 476.496 238.176 
L 515.376 238.176 
" clip-path="url(#p0600dbb595)" style="fill: none; stroke: #000000; stroke-width: 2; stroke-linecap: round"/>
   </g>
   <g id="line2d_14">
    <path d="M 286.416 43.776 
L 286.416 56.736 
L 286.416 69.696 
" clip-path="url(#p0600dbb595)" style="fill: none; stroke: #000000; stroke-width: 2; stroke-linecap: round"/>
   </g>
   <g id="line2d_15">
    <path d="M 286.416 69.696 
L 286.416 159.336 
M 275.616 174.456 
L 297.216 174.456 
M 286.416 174.456 
L 286.416 264.096 
" clip-path="url(#p0600dbb595)" style="fill: none; stroke: #000000; stroke-width: 2; stroke-linecap: round"/>
   </g>
   <g id="line2d_16">
    <path d="M 286.416 264.096 
L 286.416 281.376 
L 275.616 281.376 
L 297.216 281.376 
M 278.856 286.56 
L 293.976 286.56 
M 284.256 291.744 
L 288.576 291.744 
" clip-path="url(#p0600dbb595)" style="fill: none; stroke: #000000; stroke-width: 2; stroke-linecap: round"/>
   </g>
   <g id="line2d_17">
    <path d="M 541.296 238.176 
L 284.256 238.176 
L 27.216 238.176 
" clip-path="url(#p0600dbb595)" style="fill: none; stroke: #000000; stroke-width: 2; stroke-linecap: round"/>
   </g>
   <g id="line2d_18">
    <path d="M 437.616 238.176 
L 437.616 255.456 
L 426.816 255.456 
L 448.416 255.456 
M 430.056 260.64 
L 445.176 260.64 
M 435.456 265.824 
L 439.776 265.824 
" clip-path="url(#p0600dbb595)" style="fill: none; stroke: #000000; stroke-width: 2; stroke-linecap: round"/>
   </g>
   <g id="line2d_19">
    <path d="M 541.296 238.176 
L 541.296 255.456 
L 530.496 255.456 
L 552.096 255.456 
M 533.736 260.64 
L 548.856 260.64 
M 539.136 265.824 
L 543.456 265.824 
" clip-path="url(#p0600dbb595)" style="fill: none; stroke: #000000; stroke-width: 2; stroke-linecap: round"/>
   </g>
   <g id="line2d_20">
    <path d="M 27.216 238.176 
L 27.216 255.456 
L 16.416 255.456 
L 38.016 255.456 
M 19.656 260.64 
L 34.776 260.64 
M 25.056 265.824 
L 29.376 265.824 
" clip-path="url(#p0600dbb595)" style="fill: none; stroke: #000000; stroke-width: 2; stroke-linecap: round"/>
   </g>
   <g id="text_1">
    <!-- $V_{IN}$ -->
    <g transform="translate(18.516 251.614125) scale(0.12 -0.12)">
     <defs>
      <path id="DejaVuSans-Oblique-56" d="M 1319 0 
L 500 4666 
L 1119 4666 
L 1797 653 
L 4063 4666 
L 4750 4666 
L 2053 0 
L 1319 0 
z
" transform="scale(0.015625)"/>
      <path id="DejaVuSans-Oblique-49" d="M 1081 4666 
L 1716 4666 
L 806 0 
L 172 0 
L 1081 4666 
z
" transform="scale(0.015625)"/>
      <path id="DejaVuSans-Oblique-4e" d="M 1081 4666 
L 1931 4666 
L 3219 666 
L 4000 4666 
L 4616 4666 
L 3706 0 
L 2853 0 
L 1569 4025 
L 788 0 
L 172 0 
L 1081 4666 
z
" transform="scale(0.015625)"/>
     </defs>
     <use xlink:href="#DejaVuSans-Oblique-56" transform="translate(0 0.09375)"/>
     <use xlink:href="#DejaVuSans-Oblique-49" transform="translate(68.408203 -16.3125) scale(0.7)"/>
     <use xlink:href="#DejaVuSans-Oblique-4e" transform="translate(89.052734 -16.3125) scale(0.7)"/>
    </g>
    <!-- 24 V -->
    <g transform="translate(13.56975 263.227875) scale(0.12 -0.12)">
     <defs>
      <path id="DejaVuSans-32" d="M 1228 531 
L 3431 531 
L 3431 0 
L 469 0 
L 469 531 
Q 828 903 1448 1529 
Q 2069 2156 2228 2338 
Q 2531 2678 2651 2914 
Q 2772 3150 2772 3378 
Q 2772 3750 2511 3984 
Q 2250 4219 1831 4219 
Q 1534 4219 1204 4116 
Q 875 4013 500 3803 
L 500 4441 
Q 881 4594 1212 4672 
Q 1544 4750 1819 4750 
Q 2544 4750 2975 4387 
Q 3406 4025 3406 3419 
Q 3406 3131 3298 2873 
Q 3191 2616 2906 2266 
Q 2828 2175 2409 1742 
Q 1991 1309 1228 531 
z
" transform="scale(0.015625)"/>
      <path id="DejaVuSans-34" d="M 2419 4116 
L 825 1625 
L 2419 1625 
L 2419 4116 
z
M 2253 4666 
L 3047 4666 
L 3047 1625 
L 3713 1625 
L 3713 1100 
L 3047 1100 
L 3047 0 
L 2419 0 
L 2419 1100 
L 313 1100 
L 313 1709 
L 2253 4666 
z
" transform="scale(0.015625)"/>
      <path id="DejaVuSans-20" transform="scale(0.015625)"/>
      <path id="DejaVuSans-56" d="M 1831 0 
L 50 4666 
L 709 4666 
L 2188 738 
L 3669 4666 
L 4325 4666 
L 2547 0 
L 1831 0 
z
" transform="scale(0.015625)"/>
     </defs>
     <use xlink:href="#DejaVuSans-32"/>
     <use xlink:href="#DejaVuSans-34" transform="translate(63.623047 0)"/>
     <use xlink:href="#DejaVuSans-20" transform="translate(127.246094 0)"/>
     <use xlink:href="#DejaVuSans-56" transform="translate(159.033203 0)"/>
    </g>
   </g>
   <g id="patch_5">
    <path d="M 172.8 48.96 
C 174.174813 48.96 175.493502 48.413781 176.465642 47.441642 
C 177.437781 46.469502 177.984 45.150813 177.984 43.776 
C 177.984 42.401187 177.437781 41.082498 176.465642 40.110358 
C 175.493502 39.138219 174.174813 38.592 172.8 38.592 
C 171.425187 38.592 170.106498 39.138219 169.134358 40.110358 
C 168.162219 41.082498 167.616 42.401187 167.616 43.776 
C 167.616 45.150813 168.162219 46.469502 169.134358 47.441642 
C 170.106498 48.413781 171.425187 48.96 172.8 48.96 
z
" clip-path="url(#p0600dbb595)" style="fill: #ffffff; stroke: #000000; stroke-width: 2; stroke-linejoin: miter"/>
   </g>
   <g id="patch_6">
    <path d="M 205.632 48.96 
C 207.006813 48.96 208.325502 48.413781 209.297642 47.441642 
C 210.269781 46.469502 210.816 45.150813 210.816 43.776 
C 210.816 42.401187 210.269781 41.082498 209.297642 40.110358 
C 208.325502 39.138219 207.006813 38.592 205.632 38.592 
C 204.257187 38.592 202.938498 39.138219 201.966358 40.110358 
C 200.994219 41.082498 200.448 42.401187 200.448 43.776 
C 200.448 45.150813 200.994219 46.469502 201.966358 47.441642 
C 202.938498 48.413781 204.257187 48.96 205.632 48.96 
z
" clip-path="url(#p0600dbb595)" style="fill: #ffffff; stroke: #000000; stroke-width: 2; stroke-linejoin: miter"/>
   </g>
   <g id="text_2">
    <!-- Q1  IRF540 -->
    <g transform="translate(156.019125 17.520375) scale(0.12 -0.12)">
     <defs>
      <path id="DejaVuSans-51" d="M 2522 4238 
Q 1834 4238 1429 3725 
Q 1025 3213 1025 2328 
Q 1025 1447 1429 934 
Q 1834 422 2522 422 
Q 3209 422 3611 934 
Q 4013 1447 4013 2328 
Q 4013 3213 3611 3725 
Q 3209 4238 2522 4238 
z
M 3406 84 
L 4238 -825 
L 3475 -825 
L 2784 -78 
Q 2681 -84 2626 -87 
Q 2572 -91 2522 -91 
Q 1538 -91 948 567 
Q 359 1225 359 2328 
Q 359 3434 948 4092 
Q 1538 4750 2522 4750 
Q 3503 4750 4090 4092 
Q 4678 3434 4678 2328 
Q 4678 1516 4351 937 
Q 4025 359 3406 84 
z
" transform="scale(0.015625)"/>
      <path id="DejaVuSans-31" d="M 794 531 
L 1825 531 
L 1825 4091 
L 703 3866 
L 703 4441 
L 1819 4666 
L 2450 4666 
L 2450 531 
L 3481 531 
L 3481 0 
L 794 0 
L 794 531 
z
" transform="scale(0.015625)"/>
      <path id="DejaVuSans-49" d="M 628 4666 
L 1259 4666 
L 1259 0 
L 628 0 
L 628 4666 
z
" transform="scale(0.015625)"/>
      <path id="DejaVuSans-52" d="M 2841 2188 
Q 3044 2119 3236 1894 
Q 3428 1669 3622 1275 
L 4263 0 
L 3584 0 
L 2988 1197 
Q 2756 1666 2539 1819 
Q 2322 1972 1947 1972 
L 1259 1972 
L 1259 0 
L 628 0 
L 628 4666 
L 2053 4666 
Q 2853 4666 3247 4331 
Q 3641 3997 3641 3322 
Q 3641 2881 3436 2590 
Q 3231 2300 2841 2188 
z
M 1259 4147 
L 1259 2491 
L 2053 2491 
Q 2509 2491 2742 2702 
Q 2975 2913 2975 3322 
Q 2975 3731 2742 3939 
Q 2509 4147 2053 4147 
L 1259 4147 
z
" transform="scale(0.015625)"/>
      <path id="DejaVuSans-46" d="M 628 4666 
L 3309 4666 
L 3309 4134 
L 1259 4134 
L 1259 2759 
L 3109 2759 
L 3109 2228 
L 1259 2228 
L 1259 0 
L 628 0 
L 628 4666 
z
" transform="scale(0.015625)"/>
      <path id="DejaVuSans-35" d="M 691 4666 
L 3169 4666 
L 3169 4134 
L 1269 4134 
L 1269 2991 
Q 1406 3038 1543 3061 
Q 1681 3084 1819 3084 
Q 2600 3084 3056 2656 
Q 3513 2228 3513 1497 
Q 3513 744 3044 326 
Q 2575 -91 1722 -91 
Q 1428 -91 1123 -41 
Q 819 9 494 109 
L 494 744 
Q 775 591 1075 516 
Q 1375 441 1709 441 
Q 2250 441 2565 725 
Q 2881 1009 2881 1497 
Q 2881 1984 2565 2268 
Q 2250 2553 1709 2553 
Q 1456 2553 1204 2497 
Q 953 2441 691 2322 
L 691 4666 
z
" transform="scale(0.015625)"/>
      <path id="DejaVuSans-30" d="M 2034 4250 
Q 1547 4250 1301 3770 
Q 1056 3291 1056 2328 
Q 1056 1369 1301 889 
Q 1547 409 2034 409 
Q 2525 409 2770 889 
Q 3016 1369 3016 2328 
Q 3016 3291 2770 3770 
Q 2525 4250 2034 4250 
z
M 2034 4750 
Q 2819 4750 3233 4129 
Q 3647 3509 3647 2328 
Q 3647 1150 3233 529 
Q 2819 -91 2034 -91 
Q 1250 -91 836 529 
Q 422 1150 422 2328 
Q 422 3509 836 4129 
Q 1250 4750 2034 4750 
z
" transform="scale(0.015625)"/>
     </defs>
     <use xlink:href="#DejaVuSans-51"/>
     <use xlink:href="#DejaVuSans-31" transform="translate(78.710938 0)"/>
     <use xlink:href="#DejaVuSans-20" transform="translate(142.333984 0)"/>
     <use xlink:href="#DejaVuSans-20" transform="translate(174.121094 0)"/>
     <use xlink:href="#DejaVuSans-49" transform="translate(205.908203 0)"/>
     <use xlink:href="#DejaVuSans-52" transform="translate(235.400391 0)"/>
     <use xlink:href="#DejaVuSans-46" transform="translate(304.882812 0)"/>
     <use xlink:href="#DejaVuSans-35" transform="translate(362.402344 0)"/>
     <use xlink:href="#DejaVuSans-34" transform="translate(426.025391 0)"/>
     <use xlink:href="#DejaVuSans-30" transform="translate(489.648438 0)"/>
    </g>
   </g>
   <g id="text_3">
    <!-- L1   100 µH -->
    <g transform="translate(383.605687 20.554009) scale(0.12 -0.12)">
     <defs>
      <path id="DejaVuSans-4c" d="M 628 4666 
L 1259 4666 
L 1259 531 
L 3531 531 
L 3531 0 
L 628 0 
L 628 4666 
z
" transform="scale(0.015625)"/>
      <path id="DejaVuSans-b5" d="M 544 -1331 
L 544 3500 
L 1119 3500 
L 1119 1325 
Q 1119 872 1334 640 
Q 1550 409 1972 409 
Q 2434 409 2667 671 
Q 2900 934 2900 1459 
L 2900 3500 
L 3475 3500 
L 3475 806 
Q 3475 619 3529 530 
Q 3584 441 3700 441 
Q 3728 441 3778 458 
Q 3828 475 3916 513 
L 3916 50 
Q 3788 -22 3673 -56 
Q 3559 -91 3450 -91 
Q 3234 -91 3106 31 
Q 2978 153 2931 403 
Q 2775 156 2548 32 
Q 2322 -91 2016 -91 
Q 1697 -91 1473 31 
Q 1250 153 1119 397 
L 1119 -1331 
L 544 -1331 
z
" transform="scale(0.015625)"/>
      <path id="DejaVuSans-48" d="M 628 4666 
L 1259 4666 
L 1259 2753 
L 3553 2753 
L 3553 4666 
L 4184 4666 
L 4184 0 
L 3553 0 
L 3553 2222 
L 1259 2222 
L 1259 0 
L 628 0 
L 628 4666 
z
" transform="scale(0.015625)"/>
     </defs>
     <use xlink:href="#DejaVuSans-4c"/>
     <use xlink:href="#DejaVuSans-31" transform="translate(55.712891 0)"/>
     <use xlink:href="#DejaVuSans-20" transform="translate(119.335938 0)"/>
     <use xlink:href="#DejaVuSans-20" transform="translate(151.123047 0)"/>
     <use xlink:href="#DejaVuSans-20" transform="translate(182.910156 0)"/>
     <use xlink:href="#DejaVuSans-31" transform="translate(214.697266 0)"/>
     <use xlink:href="#DejaVuSans-30" transform="translate(278.320312 0)"/>
     <use xlink:href="#DejaVuSans-30" transform="translate(341.943359 0)"/>
     <use xlink:href="#DejaVuSans-20" transform="translate(405.566406 0)"/>
     <use xlink:href="#DejaVuSans-b5" transform="translate(437.353516 0)"/>
     <use xlink:href="#DejaVuSans-48" transform="translate(500.976562 0)"/>
    </g>
   </g>
   <g id="text_4">
    <!-- $V_{OUT}$ = 5 V -->
    <g transform="translate(545.616 42.76725) scale(0.12 -0.12)">
     <defs>
      <path id="DejaVuSans-Oblique-4f" d="M 2919 4238 
Q 2400 4238 2003 3986 
Q 1606 3734 1313 3219 
Q 1125 2891 1026 2522 
Q 928 2153 928 1778 
Q 928 1128 1239 775 
Q 1550 422 2119 422 
Q 2631 422 3032 676 
Q 3434 931 3719 1434 
Q 3909 1772 4009 2142 
Q 4109 2513 4109 2881 
Q 4109 3528 3796 3883 
Q 3484 4238 2919 4238 
z
M 2100 -91 
Q 1241 -91 748 418 
Q 256 928 256 1813 
Q 256 2319 448 2847 
Q 641 3375 978 3788 
Q 1375 4272 1862 4511 
Q 2350 4750 2938 4750 
Q 3794 4750 4287 4245 
Q 4781 3741 4781 2869 
Q 4781 2331 4593 1812 
Q 4406 1294 4056 872 
Q 3656 384 3173 146 
Q 2691 -91 2100 -91 
z
" transform="scale(0.015625)"/>
      <path id="DejaVuSans-Oblique-55" d="M 991 4666 
L 1625 4666 
L 1075 1831 
Q 1041 1641 1027 1517 
Q 1013 1394 1013 1300 
Q 1013 869 1253 645 
Q 1494 422 1959 422 
Q 2563 422 2898 753 
Q 3234 1084 3378 1831 
L 3928 4666 
L 4563 4666 
L 4000 1753 
Q 3816 809 3300 359 
Q 2784 -91 1888 -91 
Q 1188 -91 780 261 
Q 372 613 372 1216 
Q 372 1325 387 1461 
Q 403 1597 434 1753 
L 991 4666 
z
" transform="scale(0.015625)"/>
      <path id="DejaVuSans-Oblique-54" d="M 378 4666 
L 4325 4666 
L 4225 4134 
L 2559 4134 
L 1759 0 
L 1125 0 
L 1925 4134 
L 275 4134 
L 378 4666 
z
" transform="scale(0.015625)"/>
      <path id="DejaVuSans-3d" d="M 678 2906 
L 4684 2906 
L 4684 2381 
L 678 2381 
L 678 2906 
z
M 678 1631 
L 4684 1631 
L 4684 1100 
L 678 1100 
L 678 1631 
z
" transform="scale(0.015625)"/>
     </defs>
     <use xlink:href="#DejaVuSans-Oblique-56" transform="translate(0 0.09375)"/>
     <use xlink:href="#DejaVuSans-Oblique-4f" transform="translate(68.408203 -16.3125) scale(0.7)"/>
     <use xlink:href="#DejaVuSans-Oblique-55" transform="translate(123.505859 -16.3125) scale(0.7)"/>
     <use xlink:href="#DejaVuSans-Oblique-54" transform="translate(174.741211 -16.3125) scale(0.7)"/>
     <use xlink:href="#DejaVuSans-20" transform="translate(220.234375 0.09375)"/>
     <use xlink:href="#DejaVuSans-3d" transform="translate(252.021484 0.09375)"/>
     <use xlink:href="#DejaVuSans-20" transform="translate(335.810547 0.09375)"/>
     <use xlink:href="#DejaVuSans-35" transform="translate(367.597656 0.09375)"/>
     <use xlink:href="#DejaVuSans-20" transform="translate(431.220703 0.09375)"/>
     <use xlink:href="#DejaVuSans-56" transform="translate(463.007812 0.09375)"/>
    </g>
   </g>
   <g id="text_5">
    <!-- $R_{load}$ -->
    <g transform="translate(527.976 25.346625) scale(0.12 -0.12)">
     <defs>
      <path id="DejaVuSans-Oblique-52" d="M 1613 4147 
L 1294 2491 
L 2106 2491 
Q 2584 2491 2879 2755 
Q 3175 3019 3175 3444 
Q 3175 3784 2976 3965 
Q 2778 4147 2406 4147 
L 1613 4147 
z
M 2772 2241 
Q 2972 2194 3105 2009 
Q 3238 1825 3413 1275 
L 3809 0 
L 3144 0 
L 2778 1197 
Q 2638 1659 2453 1815 
Q 2269 1972 1888 1972 
L 1191 1972 
L 806 0 
L 172 0 
L 1081 4666 
L 2503 4666 
Q 3150 4666 3495 4373 
Q 3841 4081 3841 3531 
Q 3841 3044 3547 2687 
Q 3253 2331 2772 2241 
z
" transform="scale(0.015625)"/>
      <path id="DejaVuSans-Oblique-6c" d="M 1172 4863 
L 1747 4863 
L 800 0 
L 225 0 
L 1172 4863 
z
" transform="scale(0.015625)"/>
      <path id="DejaVuSans-Oblique-6f" d="M 1625 -91 
Q 1009 -91 651 289 
Q 294 669 294 1325 
Q 294 1706 417 2101 
Q 541 2497 738 2766 
Q 1047 3184 1428 3384 
Q 1809 3584 2291 3584 
Q 2888 3584 3255 3212 
Q 3622 2841 3622 2241 
Q 3622 1825 3500 1412 
Q 3378 1000 3181 728 
Q 2875 309 2494 109 
Q 2113 -91 1625 -91 
z
M 891 1344 
Q 891 869 1089 633 
Q 1288 397 1691 397 
Q 2269 397 2648 901 
Q 3028 1406 3028 2181 
Q 3028 2634 2825 2865 
Q 2622 3097 2228 3097 
Q 1903 3097 1650 2945 
Q 1397 2794 1197 2484 
Q 1050 2253 970 1956 
Q 891 1659 891 1344 
z
" transform="scale(0.015625)"/>
      <path id="DejaVuSans-Oblique-61" d="M 3438 1997 
L 3047 0 
L 2472 0 
L 2578 531 
Q 2325 219 2001 64 
Q 1678 -91 1281 -91 
Q 834 -91 548 182 
Q 263 456 263 884 
Q 263 1497 752 1853 
Q 1241 2209 2100 2209 
L 2900 2209 
L 2931 2363 
Q 2938 2388 2941 2417 
Q 2944 2447 2944 2509 
Q 2944 2788 2717 2942 
Q 2491 3097 2081 3097 
Q 1800 3097 1504 3025 
Q 1209 2953 897 2809 
L 997 3341 
Q 1322 3463 1633 3523 
Q 1944 3584 2234 3584 
Q 2853 3584 3176 3315 
Q 3500 3047 3500 2534 
Q 3500 2431 3484 2292 
Q 3469 2153 3438 1997 
z
M 2816 1759 
L 2241 1759 
Q 1534 1759 1195 1570 
Q 856 1381 856 984 
Q 856 709 1029 553 
Q 1203 397 1509 397 
Q 1978 397 2328 733 
Q 2678 1069 2791 1631 
L 2816 1759 
z
" transform="scale(0.015625)"/>
      <path id="DejaVuSans-Oblique-64" d="M 2675 525 
Q 2444 222 2128 65 
Q 1813 -91 1428 -91 
Q 903 -91 598 267 
Q 294 625 294 1247 
Q 294 1766 478 2236 
Q 663 2706 1013 3078 
Q 1244 3325 1534 3454 
Q 1825 3584 2144 3584 
Q 2481 3584 2739 3421 
Q 2997 3259 3138 2956 
L 3513 4863 
L 4091 4863 
L 3144 0 
L 2566 0 
L 2675 525 
z
M 891 1350 
Q 891 897 1095 644 
Q 1300 391 1663 391 
Q 1931 391 2161 520 
Q 2391 650 2566 903 
Q 2750 1166 2856 1509 
Q 2963 1853 2963 2188 
Q 2963 2622 2758 2865 
Q 2553 3109 2194 3109 
Q 1922 3109 1687 2981 
Q 1453 2853 1288 2613 
Q 1106 2353 998 2009 
Q 891 1666 891 1350 
z
" transform="scale(0.015625)"/>
     </defs>
     <use xlink:href="#DejaVuSans-Oblique-52" transform="translate(0 0.09375)"/>
     <use xlink:href="#DejaVuSans-Oblique-6c" transform="translate(69.482422 -16.3125) scale(0.7)"/>
     <use xlink:href="#DejaVuSans-Oblique-6f" transform="translate(88.930664 -16.3125) scale(0.7)"/>
     <use xlink:href="#DejaVuSans-Oblique-61" transform="translate(131.757812 -16.3125) scale(0.7)"/>
     <use xlink:href="#DejaVuSans-Oblique-64" transform="translate(174.65332 -16.3125) scale(0.7)"/>
    </g>
    <!-- 2.5 Ω -->
    <g transform="translate(525.261937 36.960375) scale(0.12 -0.12)">
     <defs>
      <path id="DejaVuSans-2e" d="M 684 794 
L 1344 794 
L 1344 0 
L 684 0 
L 684 794 
z
" transform="scale(0.015625)"/>
      <path id="DejaVuSans-3a9" d="M 4647 556 
L 4647 0 
L 2772 0 
L 2772 556 
Q 3325 859 3634 1378 
Q 3944 1897 3944 2528 
Q 3944 3278 3531 3731 
Q 3119 4184 2444 4184 
Q 1769 4184 1355 3729 
Q 941 3275 941 2528 
Q 941 1897 1250 1378 
Q 1563 859 2119 556 
L 2119 0 
L 244 0 
L 244 556 
L 1241 556 
Q 747 991 519 1456 
Q 294 1922 294 2497 
Q 294 3491 894 4106 
Q 1491 4722 2444 4722 
Q 3391 4722 3994 4106 
Q 4594 3494 4594 2528 
Q 4594 1922 4372 1459 
Q 4150 997 3647 556 
L 4647 556 
z
" transform="scale(0.015625)"/>
     </defs>
     <use xlink:href="#DejaVuSans-32"/>
     <use xlink:href="#DejaVuSans-2e" transform="translate(63.623047 0)"/>
     <use xlink:href="#DejaVuSans-35" transform="translate(95.410156 0)"/>
     <use xlink:href="#DejaVuSans-20" transform="translate(159.033203 0)"/>
     <use xlink:href="#DejaVuSans-3a9" transform="translate(190.820312 0)"/>
    </g>
   </g>
   <g id="text_6">
    <!-- C1 -->
    <g transform="translate(429.608812 25.346625) scale(0.12 -0.12)">
     <defs>
      <path id="DejaVuSans-43" d="M 4122 4306 
L 4122 3641 
Q 3803 3938 3442 4084 
Q 3081 4231 2675 4231 
Q 1875 4231 1450 3742 
Q 1025 3253 1025 2328 
Q 1025 1406 1450 917 
Q 1875 428 2675 428 
Q 3081 428 3442 575 
Q 3803 722 4122 1019 
L 4122 359 
Q 3791 134 3420 21 
Q 3050 -91 2638 -91 
Q 1578 -91 968 557 
Q 359 1206 359 2328 
Q 359 3453 968 4101 
Q 1578 4750 2638 4750 
Q 3056 4750 3426 4639 
Q 3797 4528 4122 4306 
z
" transform="scale(0.015625)"/>
     </defs>
     <use xlink:href="#DejaVuSans-43"/>
     <use xlink:href="#DejaVuSans-31" transform="translate(69.824219 0)"/>
    </g>
    <!-- 100 µF -->
    <g transform="translate(416.988187 36.960375) scale(0.12 -0.12)">
     <use xlink:href="#DejaVuSans-31"/>
     <use xlink:href="#DejaVuSans-30" transform="translate(63.623047 0)"/>
     <use xlink:href="#DejaVuSans-30" transform="translate(127.246094 0)"/>
     <use xlink:href="#DejaVuSans-20" transform="translate(190.869141 0)"/>
     <use xlink:href="#DejaVuSans-b5" transform="translate(222.65625 0)"/>
     <use xlink:href="#DejaVuSans-46" transform="translate(286.279297 0)"/>
    </g>
   </g>
   <g id="text_7">
    <!-- D1  Schottky -->
    <g transform="translate(248.070375 62.880375) scale(0.12 -0.12)">
     <defs>
      <path id="DejaVuSans-44" d="M 1259 4147 
L 1259 519 
L 2022 519 
Q 2988 519 3436 956 
Q 3884 1394 3884 2338 
Q 3884 3275 3436 3711 
Q 2988 4147 2022 4147 
L 1259 4147 
z
M 628 4666 
L 1925 4666 
Q 3281 4666 3915 4102 
Q 4550 3538 4550 2338 
Q 4550 1131 3912 565 
Q 3275 0 1925 0 
L 628 0 
L 628 4666 
z
" transform="scale(0.015625)"/>
      <path id="DejaVuSans-53" d="M 3425 4513 
L 3425 3897 
Q 3066 4069 2747 4153 
Q 2428 4238 2131 4238 
Q 1616 4238 1336 4038 
Q 1056 3838 1056 3469 
Q 1056 3159 1242 3001 
Q 1428 2844 1947 2747 
L 2328 2669 
Q 3034 2534 3370 2195 
Q 3706 1856 3706 1288 
Q 3706 609 3251 259 
Q 2797 -91 1919 -91 
Q 1588 -91 1214 -16 
Q 841 59 441 206 
L 441 856 
Q 825 641 1194 531 
Q 1563 422 1919 422 
Q 2459 422 2753 634 
Q 3047 847 3047 1241 
Q 3047 1584 2836 1778 
Q 2625 1972 2144 2069 
L 1759 2144 
Q 1053 2284 737 2584 
Q 422 2884 422 3419 
Q 422 4038 858 4394 
Q 1294 4750 2059 4750 
Q 2388 4750 2728 4690 
Q 3069 4631 3425 4513 
z
" transform="scale(0.015625)"/>
      <path id="DejaVuSans-63" d="M 3122 3366 
L 3122 2828 
Q 2878 2963 2633 3030 
Q 2388 3097 2138 3097 
Q 1578 3097 1268 2742 
Q 959 2388 959 1747 
Q 959 1106 1268 751 
Q 1578 397 2138 397 
Q 2388 397 2633 464 
Q 2878 531 3122 666 
L 3122 134 
Q 2881 22 2623 -34 
Q 2366 -91 2075 -91 
Q 1284 -91 818 406 
Q 353 903 353 1747 
Q 353 2603 823 3093 
Q 1294 3584 2113 3584 
Q 2378 3584 2631 3529 
Q 2884 3475 3122 3366 
z
" transform="scale(0.015625)"/>
      <path id="DejaVuSans-68" d="M 3513 2113 
L 3513 0 
L 2938 0 
L 2938 2094 
Q 2938 2591 2744 2837 
Q 2550 3084 2163 3084 
Q 1697 3084 1428 2787 
Q 1159 2491 1159 1978 
L 1159 0 
L 581 0 
L 581 4863 
L 1159 4863 
L 1159 2956 
Q 1366 3272 1645 3428 
Q 1925 3584 2291 3584 
Q 2894 3584 3203 3211 
Q 3513 2838 3513 2113 
z
" transform="scale(0.015625)"/>
      <path id="DejaVuSans-6f" d="M 1959 3097 
Q 1497 3097 1228 2736 
Q 959 2375 959 1747 
Q 959 1119 1226 758 
Q 1494 397 1959 397 
Q 2419 397 2687 759 
Q 2956 1122 2956 1747 
Q 2956 2369 2687 2733 
Q 2419 3097 1959 3097 
z
M 1959 3584 
Q 2709 3584 3137 3096 
Q 3566 2609 3566 1747 
Q 3566 888 3137 398 
Q 2709 -91 1959 -91 
Q 1206 -91 779 398 
Q 353 888 353 1747 
Q 353 2609 779 3096 
Q 1206 3584 1959 3584 
z
" transform="scale(0.015625)"/>
      <path id="DejaVuSans-74" d="M 1172 4494 
L 1172 3500 
L 2356 3500 
L 2356 3053 
L 1172 3053 
L 1172 1153 
Q 1172 725 1289 603 
Q 1406 481 1766 481 
L 2356 481 
L 2356 0 
L 1766 0 
Q 1100 0 847 248 
Q 594 497 594 1153 
L 594 3053 
L 172 3053 
L 172 3500 
L 594 3500 
L 594 4494 
L 1172 4494 
z
" transform="scale(0.015625)"/>
      <path id="DejaVuSans-6b" d="M 581 4863 
L 1159 4863 
L 1159 1991 
L 2875 3500 
L 3609 3500 
L 1753 1863 
L 3688 0 
L 2938 0 
L 1159 1709 
L 1159 0 
L 581 0 
L 581 4863 
z
" transform="scale(0.015625)"/>
      <path id="DejaVuSans-79" d="M 2059 -325 
Q 1816 -950 1584 -1140 
Q 1353 -1331 966 -1331 
L 506 -1331 
L 506 -850 
L 844 -850 
Q 1081 -850 1212 -737 
Q 1344 -625 1503 -206 
L 1606 56 
L 191 3500 
L 800 3500 
L 1894 763 
L 2988 3500 
L 3597 3500 
L 2059 -325 
z
" transform="scale(0.015625)"/>
     </defs>
     <use xlink:href="#DejaVuSans-44"/>
     <use xlink:href="#DejaVuSans-31" transform="translate(77.001953 0)"/>
     <use xlink:href="#DejaVuSans-20" transform="translate(140.625 0)"/>
     <use xlink:href="#DejaVuSans-20" transform="translate(172.412109 0)"/>
     <use xlink:href="#DejaVuSans-53" transform="translate(204.199219 0)"/>
     <use xlink:href="#DejaVuSans-63" transform="translate(267.675781 0)"/>
     <use xlink:href="#DejaVuSans-68" transform="translate(322.65625 0)"/>
     <use xlink:href="#DejaVuSans-6f" transform="translate(386.035156 0)"/>
     <use xlink:href="#DejaVuSans-74" transform="translate(447.216797 0)"/>
     <use xlink:href="#DejaVuSans-74" transform="translate(486.425781 0)"/>
     <use xlink:href="#DejaVuSans-6b" transform="translate(525.634766 0)"/>
     <use xlink:href="#DejaVuSans-79" transform="translate(579.919922 0)"/>
    </g>
   </g>
   <g id="patch_7">
    <path d="M 286.416 47.016 
C 287.275258 47.016 288.099439 46.674613 288.707026 46.067026 
C 289.314613 45.459439 289.656 44.635258 289.656 43.776 
C 289.656 42.916742 289.314613 42.092561 288.707026 41.484974 
C 288.099439 40.877387 287.275258 40.536 286.416 40.536 
C 285.556742 40.536 284.732561 40.877387 284.124974 41.484974 
C 283.517387 42.092561 283.176 42.916742 283.176 43.776 
C 283.176 44.635258 283.517387 45.459439 284.124974 46.067026 
C 284.732561 46.674613 285.556742 47.016 286.416 47.016 
z
" clip-path="url(#p0600dbb595)" style="stroke: #000000; stroke-width: 2; stroke-linejoin: miter"/>
   </g>
   <g id="patch_8">
    <path d="M 515.376 47.016 
C 516.235258 47.016 517.059439 46.674613 517.667026 46.067026 
C 518.274613 45.459439 518.616 44.635258 518.616 43.776 
C 518.616 42.916742 518.274613 42.092561 517.667026 41.484974 
C 517.059439 40.877387 516.235258 40.536 515.376 40.536 
C 514.516742 40.536 513.692561 40.877387 513.084974 41.484974 
C 512.477387 42.092561 512.136 42.916742 512.136 43.776 
C 512.136 44.635258 512.477387 45.459439 513.084974 46.067026 
C 513.692561 46.674613 514.516742 47.016 515.376 47.016 
z
" clip-path="url(#p0600dbb595)" style="stroke: #000000; stroke-width: 2; stroke-linejoin: miter"/>
   </g>
   <g id="patch_9">
    <path d="M 541.296 47.016 
C 542.155258 47.016 542.979439 46.674613 543.587026 46.067026 
C 544.194613 45.459439 544.536 44.635258 544.536 43.776 
C 544.536 42.916742 544.194613 42.092561 543.587026 41.484974 
C 542.979439 40.877387 542.155258 40.536 541.296 40.536 
C 540.436742 40.536 539.612561 40.877387 539.004974 41.484974 
C 538.397387 42.092561 538.056 42.916742 538.056 43.776 
C 538.056 44.635258 538.397387 45.459439 539.004974 46.067026 
C 539.612561 46.674613 540.436742 47.016 541.296 47.016 
z
" clip-path="url(#p0600dbb595)" style="fill: #ffffff; stroke: #000000; stroke-width: 2; stroke-linejoin: miter"/>
   </g>
   <g id="patch_10">
    <path d="M 541.296 241.416 
C 542.155258 241.416 542.979439 241.074613 543.587026 240.467026 
C 544.194613 239.859439 544.536 239.035258 544.536 238.176 
C 544.536 237.316742 544.194613 236.492561 543.587026 235.884974 
C 542.979439 235.277387 542.155258 234.936 541.296 234.936 
C 540.436742 234.936 539.612561 235.277387 539.004974 235.884974 
C 538.397387 236.492561 538.056 237.316742 538.056 238.176 
C 538.056 239.035258 538.397387 239.859439 539.004974 240.467026 
C 539.612561 241.074613 540.436742 241.416 541.296 241.416 
z
" clip-path="url(#p0600dbb595)" style="stroke: #000000; stroke-width: 2; stroke-linejoin: miter"/>
   </g>
  </g>
 </g>
 <defs>
  <clipPath id="p0600dbb595">
   <rect x="0" y="0" width="632.9664" height="297.36"/>
  </clipPath>
 </defs>
</svg>
